#!OML:ASF I:\Random Stuff\random\construction\7_22_03\Session 2\subj1.ASF
:FULLY-SPECIFIED
:DEGREES
477
root -3.54098 17.878 3.46882 -1.1772 60.5993 -8.27553
lowerback 7.87369 0.5903 -0.0157701
upperback -0.225159 0.849354 1.19139
thorax -4.67067 0.438265 1.14494
lowerneck -22.8335 -1.06067 0.436544
upperneck 32.5382 -1.4261 0.19406
head 15.215 -0.375461 -0.23374
rclavicle -2.98177e-015 -4.17448e-015
rhumerus -38.5915 -25.2032 -61.9967
rradius 22.8101
rwrist 17.7309
rhand -8.18816 16.8147
rfingers 7.12502
rthumb 17.7278 -12.3971
lclavicle -2.98177e-015 -4.17448e-015
lhumerus -33.8928 -4.74133 87.2998
lradius 32.0487
lwrist 33.6442
lhand -18.8209 65.236
lfingers 7.12502
lthumb -172.522 84.9162
rfemur -13.5372 3.74592 18.6419
rtibia 38.1629
rfoot -9.89502 -1.95644
rtoes -12.3902
lfemur -17.717 -6.16933 -14.513
ltibia 17.5806
lfoot -5.40553 11.0603
ltoes -23.9348
478
root -3.64475 17.8758 3.45673 -1.4806 60.5834 -8.3959
lowerback 7.78479 0.674677 0.268283
upperback -0.254968 0.98878 1.21165
thorax -4.65011 0.500865 0.990513
lowerneck -22.4509 -1.04036 0.335205
upperneck 32.2183 -1.37133 0.248294
head 14.9821 -0.361579 -0.180405
rclavicle -2.70596e-014 -1.43125e-014
rhumerus -38.3458 -24.5978 -62.1574
rradius 23.2112
rwrist 17.0764
rhand -8.39402 16.7882
rfingers 7.12502
rthumb 17.5297 -12.4415
lclavicle -2.70596e-014 -1.43125e-014
lhumerus -33.7175 -5.47508 87.3267
lradius 33.9464
lwrist 33.9227
lhand -18.9891 64.8475
lfingers 7.12502
lthumb -172.684 85.2989
rfemur -12.6336 3.33523 18.998
rtibia 39.7964
rfoot -9.59628 -1.21173
rtoes -11.2402
lfemur -17.7244 -5.90482 -14.3096
ltibia 17.2565
lfoot -4.77835 10.7728
ltoes -23.9661
479
root -3.75166 17.8733 3.4476 -1.45059 60.5648 -8.05428
lowerback 7.70481 0.774866 0.346739
upperback -0.230347 1.12583 1.16262
thorax -4.57907 0.566172 0.880634
lowerneck -22.4946 -0.941619 0.462537
upperneck 32.1826 -1.23836 0.142336
head 14.9734 -0.305117 -0.221066
rclavicle -6.18717e-014 -9.74045e-015
rhumerus -37.9861 -23.8529 -62.473
rradius 23.6733
rwrist 16.3669
rhand -8.74726 16.6211
rfingers 7.12502
rthumb 17.1897 -12.6385
lclavicle -6.18717e-014 -9.74045e-015
lhumerus -33.4392 -6.13937 87.3051
lradius 35.8679
lwrist 34.2698
lhand -19.161 64.3848
lfingers 7.12502
lthumb -172.85 85.756
rfemur -11.55 2.8466 19.0728
rtibia 41.0274
rfoot -9.17981 -0.732925
rtoes -10.3158
lfemur -17.5909 -5.7391 -14.3443
ltibia 16.849
lfoot -4.10097 10.4341
ltoes -24.0108
480
root -3.86959 17.8695 3.43931 -1.4796 60.5735 -7.81115
lowerback 7.64189 0.868083 0.510731
upperback -0.202168 1.26169 1.11799
thorax -4.51158 0.629165 0.727631
lowerneck -22.4644 -0.879175 0.471299
upperneck 32.1073 -1.13108 0.0941337
head 14.9317 -0.266324 -0.221717
rclavicle -1.75427e-014 -9.74045e-015
rhumerus -37.5697 -23.0588 -62.8735
rradius 24.1883
rwrist 15.638
rhand -9.4338 16.479
rfingers 7.12502
rthumb 16.5288 -12.837
lclavicle -1.75427e-014 -9.74045e-015
lhumerus -33.0881 -6.74958 87.2778
lradius 37.8288
lwrist 34.8
lhand -19.4277 64.0383
lfingers 7.12502
lthumb -173.108 86.0939
rfemur -10.4242 2.35847 19.1961
rtibia 41.8384
rfoot -8.75855 -0.656953
rtoes -9.1867
lfemur -17.4641 -5.78351 -14.259
ltibia 16.3134
lfoot -3.34034 10.3837
ltoes -24.0497
481
root -3.99387 17.8626 3.43085 -1.507 60.5466 -7.58756
lowerback 7.60091 0.982209 0.749506
upperback -0.201757 1.4319 1.06151
thorax -4.48247 0.707343 0.516284
lowerneck -22.7941 -0.759905 0.727316
upperneck 32.3935 -0.948242 -0.198927
head 15.1344 -0.195049 -0.354578
rclavicle 5.03174e-014 1.32192e-014
rhumerus -37.2092 -22.287 -63.2303
rradius 24.7231
rwrist 15.049
rhand -10.7837 16.7381
rfingers 7.12502
rthumb 15.2289 -12.6814
lclavicle 5.03174e-014 1.32192e-014
lhumerus -32.7097 -7.30438 87.2242
lradius 39.7369
lwrist 35.3872
lhand -19.4756 63.8766
lfingers 7.12502
lthumb -173.154 86.2541
rfemur -9.24166 1.90314 19.3043
rtibia 42.1938
rfoot -8.22765 -0.725078
rtoes -7.93007
lfemur -17.3714 -5.76241 -14.1468
ltibia 15.7661
lfoot -2.64456 10.438
ltoes -24.3298
482
root -4.12534 17.8528 3.42462 -1.43539 60.4681 -7.30001
lowerback 7.55487 1.11477 0.955194
upperback -0.235538 1.62425 1.01561
thorax -4.48559 0.797191 0.332095
lowerneck -22.6056 -0.717652 0.686307
upperneck 32.3082 -0.850043 -0.233643
head 15.0531 -0.163489 -0.341532
rclavicle 8.22472e-015 1.39149e-015
rhumerus -36.8001 -21.2687 -63.6688
rradius 25.3023
rwrist 14.4472
rhand -12.3806 17.3081
rfingers 7.12502
rthumb 13.6902 -12.2216
lclavicle 8.22472e-015 1.39149e-015
lhumerus -32.3489 -7.72435 87.1566
lradius 41.5898
lwrist 36.0442
lhand -19.1955 63.7463
lfingers 7.12502
lthumb -172.884 86.3933
rfemur -8.03432 1.50419 19.353
rtibia 42.0498
rfoot -7.14413 -0.628634
rtoes -6.96498
lfemur -17.4162 -5.62983 -14.0531
ltibia 15.3972
lfoot -2.16552 10.3616
ltoes -23.7995
483
root -4.27129 17.8381 3.4203 -1.33559 60.4168 -7.06646
lowerback 7.51603 1.24952 1.15479
upperback -0.285015 1.8203 0.991368
thorax -4.50831 0.889065 0.173272
lowerneck -22.765 -0.584379 0.965654
upperneck 32.425 -0.629008 -0.59947
head 15.1412 -0.0868067 -0.500835
rclavicle 5.51379e-014 -3.97569e-016
rhumerus -36.2288 -19.9485 -64.2907
rradius 25.9162
rwrist 13.696
rhand -13.4284 17.2518
rfingers 7.12502
rthumb 12.6802 -12.3433
lclavicle 5.51379e-014 -3.97569e-016
lhumerus -32.0278 -7.92713 87.0834
lradius 43.5229
lwrist 36.8352
lhand -18.7293 63.7285
lfingers 7.12502
lthumb -172.434 86.4268
rfemur -6.85918 1.13582 19.4381
rtibia 41.3325
rfoot -5.37558 -0.172179
rtoes -6.32157
lfemur -17.7332 -5.75033 -13.8387
ltibia 15.3246
lfoot -1.75609 10.4157
ltoes -23.0323
484
root -4.42983 17.8132 3.41305 -1.14581 60.394 -6.84055
lowerback 7.47797 1.37316 1.40493
upperback -0.366397 2.00543 0.946378
thorax -4.5608 0.973549 -0.0344041
lowerneck -22.8642 -0.503998 0.993417
upperneck 32.505 -0.514607 -0.608678
head 15.202 -0.0342621 -0.487658
rclavicle 4.0198e-014 -4.02539e-015
rhumerus -35.6328 -18.525 -65.0187
rradius 26.6271
rwrist 12.9497
rhand -14.0478 16.8429
rfingers 7.12502
rthumb 12.083 -12.7883
lclavicle 4.0198e-014 -4.02539e-015
lhumerus -31.7688 -8.0257 86.9906
lradius 45.6361
lwrist 37.8829
lhand -18.4708 63.9171
lfingers 7.12502
lthumb -172.184 86.2474
rfemur -5.7401 0.798892 19.5195
rtibia 39.958
rfoot -3.33358 0.602009
rtoes -6.22774
lfemur -18.3813 -5.98933 -13.5689
ltibia 15.5597
lfoot -1.267 10.5431
ltoes -23.4168
485
root -4.59854 17.7769 3.4035 -0.884274 60.38 -6.66132
lowerback 7.41019 1.49181 1.72721
upperback -0.490369 2.19057 0.90541
thorax -4.63658 1.05558 -0.277981
lowerneck -22.9186 -0.429847 0.956893
upperneck 32.5757 -0.406123 -0.551351
head 15.2491 0.0176589 -0.43611
rclavicle -4.06732e-014 5.54112e-015
rhumerus -35.1133 -17.1874 -65.6736
rradius 27.4548
rwrist 12.2663
rhand -14.6347 16.8165
rfingers 7.12502
rthumb 11.5171 -12.8471
lclavicle -4.06732e-014 5.54112e-015
lhumerus -31.4998 -8.07244 86.9282
lradius 47.6808
lwrist 38.8639
lhand -18.368 64.1604
lfingers 7.12502
lthumb -172.085 86.0078
rfemur -4.70492 0.523762 19.6335
rtibia 37.9398
rfoot -1.89661 1.38678
rtoes -6.49119
lfemur -19.3117 -6.10614 -13.269
ltibia 15.9793
lfoot -0.686809 10.6069
ltoes -24.5839
